<svg width="1024" height="1024" viewBox="0 0 1024 1024" xmlns="http://www.w3.org/2000/svg" role="img" aria-label="Calendar with pilot wings app icon">
  <defs>
    <linearGradient id="bg" x1="120" y1="80" x2="900" y2="950" gradientUnits="userSpaceOnUse">
      <stop offset="0" stop-color="#123a58"/>
      <stop offset="1" stop-color="#071725"/>
    </linearGradient>
    <linearGradient id="gold" x1="240" y1="230" x2="790" y2="830" gradientUnits="userSpaceOnUse">
      <stop offset="0" stop-color="#f4dfa1"/>
      <stop offset="0.48" stop-color="#caa75d"/>
      <stop offset="1" stop-color="#8d672d"/>
    </linearGradient>
    <linearGradient id="paper" x1="260" y1="210" x2="760" y2="790" gradientUnits="userSpaceOnUse">
      <stop offset="0" stop-color="#fffdf6"/>
      <stop offset="1" stop-color="#d8dde0"/>
    </linearGradient>
    <filter id="shadow" x="-20%" y="-20%" width="140%" height="140%">
      <feDropShadow dx="0" dy="24" stdDeviation="22" flood-color="#000000" flood-opacity="0.32"/>
    </filter>
  </defs>

  <rect width="1024" height="1024" rx="210" fill="url(#bg)"/>
  <rect x="58" y="58" width="908" height="908" rx="166" fill="none" stroke="#c8a55d" stroke-width="14" opacity="0.72"/>

  <g filter="url(#shadow)">
    <rect x="244" y="258" width="536" height="552" rx="84" fill="url(#paper)"/>
    <path d="M244 342c0-46 38-84 84-84h368c46 0 84 38 84 84v82H244v-82Z" fill="url(#gold)"/>
    <path d="M368 222v86M656 222v86" stroke="#f9f5eb" stroke-width="38" stroke-linecap="round"/>
    <path d="M348 520h328M348 626h328M348 732h216" stroke="#142f46" stroke-width="32" stroke-linecap="round" opacity="0.13"/>

    <g fill="url(#gold)">
      <circle cx="512" cy="604" r="64"/>
      <path d="M512 556l16 32 36 5-26 25 6 36-32-17-32 17 6-36-26-25 36-5 16-32Z" fill="#102b43"/>
      <path d="M448 590 202 512c61 82 134 137 220 166l26-88Z"/>
      <path d="M576 590 822 512c-61 82-134 137-220 166l-26-88Z"/>
      <path d="M424 694c-78-24-139-58-184-102 28 85 86 144 174 176l10-74Z"/>
      <path d="M600 694c78-24 139-58 184-102-28 85-86 144-174 176l-10-74Z"/>
    </g>
  </g>
</svg>
